<?xml version="1.0" encoding="UTF-8"?>
<svg id="Layer_2" data-name="Layer 2" xmlns="http://www.w3.org/2000/svg" viewBox="0 0 576 720">
  <defs>
    <style>
      .cls-1 {
        fill: #0b1422;
      }

      .cls-2 {
        fill: #fff;
      }

      .cls-3 {
        fill: #0e2d4c;
      }

      .cls-4 {
        fill: #f58920;
      }
    </style>
  </defs>
  <g id="Layer_1-2" data-name="Layer 1">
    <g>
      <g>
        <path class="cls-1" d="M0,0v720h576V0H0Z"/>
        <rect class="cls-3" x="0" y="341.25" width="576" height="378.75"/>
      </g>
      <g>
        <path class="cls-4" d="M80.55,608.1v53.08c0,4.82-1.32,8.55-3.95,11.19-2.64,2.62-6.26,3.94-10.89,3.94s-8.33-1.33-10.95-4c-2.64-2.67-3.95-6.38-3.95-11.13v-53.08h-26.83v51.85c0,4.27.82,9.17,2.49,14.71,1.03,3.45,2.94,6.79,5.74,10.02,2.79,3.25,5.86,5.75,9.23,7.5,3.36,1.77,7.55,2.94,12.55,3.53,5,.6,9.63.88,13.85.88,7.32,0,13.6-.96,18.83-2.91,3.76-1.38,7.35-3.79,10.77-7.2,3.43-3.42,5.93-7.41,7.53-11.98,1.6-4.57,2.41-9.42,2.41-14.56v-51.85h-26.83Z"/>
        <path class="cls-4" d="M126.25,608.1v87.02h26.95v-87.02h-26.95Z"/>
        <path class="cls-4" d="M229.12,608.1v53.08c0,4.82-1.32,8.55-3.94,11.19-2.64,2.62-6.26,3.94-10.9,3.94s-8.31-1.33-10.95-4c-2.62-2.67-3.94-6.38-3.94-11.13v-53.08h-26.84v51.85c0,4.27.84,9.17,2.5,14.71,1.03,3.45,2.94,6.79,5.72,10.02,2.8,3.25,5.87,5.75,9.24,7.5,3.36,1.77,7.53,2.94,12.55,3.53,5,.6,9.62.88,13.85.88,7.32,0,13.6-.96,18.81-2.91,3.76-1.38,7.35-3.79,10.78-7.2,3.41-3.42,5.93-7.41,7.53-11.98,1.6-4.57,2.41-9.42,2.41-14.56v-51.85h-26.84Z"/>
      </g>
      <g>
        <path class="cls-2" d="M295.4,621.26c-.97-1.29-2.19-2.11-3.64-2.49-.96-.25-2.98-.39-6.1-.39h-8.22v25.39h5.12v-9.57h3.34c2.32,0,4.09-.13,5.32-.37.9-.19,1.78-.6,2.65-1.2.87-.61,1.59-1.44,2.16-2.5s.85-2.37.85-3.92c0-2.02-.49-3.67-1.48-4.94ZM291.01,628.24c-.37.57-.91.97-1.59,1.24-.69.27-2.04.4-4.06.4h-2.8v-7.2h2.47c1.84,0,3.07.06,3.68.16.84.15,1.53.54,2.07,1.14.54.6.81,1.36.81,2.28,0,.75-.19,1.41-.58,1.98Z"/>
        <path class="cls-2" d="M316.27,618.39v9.99h-10.04v-9.99h-5.12v25.39h5.12v-11.1h10.04v11.1h5.12v-25.39h-5.12Z"/>
        <path class="cls-2" d="M346.91,621.44c-2.25-2.32-5.24-3.49-8.99-3.49-2.07,0-3.88.34-5.47,1-1.18.51-2.28,1.26-3.28,2.29-1,1.03-1.78,2.19-2.37,3.47-.76,1.75-1.15,3.92-1.15,6.52,0,4.04,1.11,7.2,3.34,9.51,2.23,2.31,5.23,3.46,9,3.46s6.71-1.17,8.93-3.47c2.23-2.32,3.34-5.53,3.34-9.62s-1.11-7.35-3.36-9.68ZM343.02,637.62c-1.32,1.47-3,2.2-5.03,2.2s-3.73-.73-5.06-2.22c-1.32-1.48-1.99-3.67-1.99-6.55s.66-5.09,1.95-6.55c1.29-1.45,3-2.17,5.11-2.17s3.8.72,5.08,2.14c1.27,1.44,1.92,3.61,1.92,6.52s-.66,5.15-1.96,6.62Z"/>
        <path class="cls-2" d="M352.45,618.39v4.3h7.53v21.09h5.12v-21.09h7.52v-4.3h-20.18Z"/>
        <path class="cls-2" d="M395.5,621.44c-2.25-2.32-5.23-3.49-8.97-3.49-2.07,0-3.89.34-5.47,1-1.2.51-2.29,1.26-3.28,2.29-1,1.03-1.8,2.19-2.37,3.47-.78,1.75-1.17,3.92-1.17,6.52,0,4.04,1.12,7.2,3.36,9.51,2.22,2.31,5.23,3.46,9,3.46s6.7-1.17,8.93-3.47c2.23-2.32,3.34-5.53,3.34-9.62s-1.12-7.35-3.37-9.68ZM391.61,637.62c-1.3,1.47-2.98,2.2-5.03,2.2s-3.71-.73-5.05-2.22c-1.33-1.48-1.99-3.67-1.99-6.55s.64-5.09,1.93-6.55c1.3-1.45,3-2.17,5.11-2.17s3.82.72,5.09,2.14c1.27,1.44,1.9,3.61,1.9,6.52s-.64,5.15-1.96,6.62Z"/>
        <path class="cls-2" d="M414.67,630.16v4.28h5.87v3.22c-.76.6-1.69,1.11-2.77,1.53-1.08.42-2.16.63-3.24.63-2.17,0-3.92-.75-5.26-2.26-1.35-1.5-2.01-3.76-2.01-6.77,0-2.8.66-4.9,1.98-6.32,1.32-1.42,3.1-2.13,5.35-2.13,1.47,0,2.71.36,3.68,1.08.99.72,1.66,1.71,2.02,2.95l5.09-.94c-.51-2.34-1.65-4.16-3.42-5.48-1.78-1.33-4.24-1.99-7.38-1.99-2.43,0-4.45.42-6.08,1.27-2.14,1.09-3.76,2.67-4.87,4.72-1.11,2.05-1.66,4.4-1.66,7.05,0,2.43.49,4.69,1.5,6.76.99,2.07,2.47,3.67,4.45,4.78,1.96,1.12,4.28,1.68,6.93,1.68,2.1,0,4.15-.4,6.19-1.18,2.04-.79,3.59-1.71,4.67-2.76v-10.11h-11.05Z"/>
        <path class="cls-2" d="M450.19,638.82c-1.21-1.98-2.19-3.34-2.92-4.12-.72-.78-1.63-1.48-2.74-2.13,2.23-.33,3.91-1.11,5.02-2.35,1.12-1.24,1.69-2.82,1.69-4.72,0-1.5-.37-2.83-1.11-4-.75-1.17-1.72-1.98-2.95-2.43-1.24-.46-3.21-.69-5.92-.69h-10.78v25.39h5.12v-10.6h1.03c1.18,0,2.04.1,2.58.28.55.19,1.06.55,1.54,1.06.49.51,1.39,1.75,2.71,3.73l3.7,5.53h6.13l-3.1-4.96ZM439.39,629.13h-3.79v-6.44h4c2.08,0,3.33.03,3.73.09.84.13,1.48.46,1.93.99.46.52.69,1.21.69,2.07,0,.76-.18,1.41-.52,1.9-.34.51-.82.87-1.44,1.08-.6.21-2.14.31-4.6.31Z"/>
        <path class="cls-2" d="M468.79,618.39h-5.42l-9.89,25.39h5.44l2.1-5.77h10.14l2.22,5.77h5.57l-10.16-25.39ZM462.59,633.73l3.43-9.41,3.49,9.41h-6.92Z"/>
        <path class="cls-2" d="M499.63,621.26c-.97-1.29-2.19-2.11-3.64-2.49-.96-.25-2.98-.39-6.1-.39h-8.22v25.39h5.12v-9.57h3.34c2.32,0,4.09-.13,5.32-.37.9-.19,1.78-.6,2.65-1.2.87-.61,1.59-1.44,2.16-2.5.57-1.06.85-2.37.85-3.92,0-2.02-.49-3.67-1.48-4.94ZM495.24,628.24c-.37.57-.91.97-1.59,1.24-.69.27-2.04.4-4.06.4h-2.8v-7.2h2.47c1.84,0,3.07.06,3.68.16.84.15,1.53.54,2.07,1.14.54.6.81,1.36.81,2.28,0,.75-.19,1.41-.58,1.98Z"/>
        <path class="cls-2" d="M520.49,618.39v9.99h-10.04v-9.99h-5.12v25.39h5.12v-11.1h10.04v11.1h5.12v-25.39h-5.12Z"/>
        <path class="cls-2" d="M546.12,618.39l-5.86,10.05-5.96-10.05h-6.02l9.3,14.71v10.68h5.11v-10.65l9.33-14.74h-5.9Z"/>
        <path class="cls-2" d="M293.68,676.98c-.43,1.87-1.14,3.22-2.11,4.09-.99.87-2.16,1.3-3.52,1.3-1.84,0-3.34-.67-4.49-2.04-1.15-1.36-1.74-3.65-1.74-6.86,0-3.03.58-5.21,1.75-6.56,1.18-1.35,2.71-2.02,4.58-2.02,1.36,0,2.52.37,3.47,1.14.94.76,1.57,1.8,1.87,3.12l5.08-1.21c-.58-2.04-1.44-3.59-2.59-4.67-1.95-1.84-4.46-2.76-7.58-2.76-3.55,0-6.41,1.17-8.6,3.5-2.19,2.34-3.27,5.62-3.27,9.84,0,4,1.08,7.14,3.25,9.45,2.17,2.31,4.94,3.44,8.31,3.44,2.73,0,4.97-.66,6.74-2.01,1.77-1.35,3.04-3.4,3.8-6.17l-4.97-1.59Z"/>
        <path class="cls-2" d="M308.31,682.05v-20.89h-5.14v25.18h17.87v-4.28h-12.73Z"/>
        <path class="cls-2" d="M339.78,660.94v14.03c0,2.01-.07,3.44-.22,4.31-.15.87-.6,1.6-1.33,2.19-.73.6-1.84.9-3.3.9s-2.56-.31-3.39-.94-1.35-1.47-1.56-2.5c-.13-.64-.19-2.07-.19-4.24v-13.75h-5.12v13.54c0,2.83.16,4.99.49,6.44.24.97.72,1.92,1.44,2.82.73.88,1.72,1.62,2.98,2.17,1.24.57,3.09.84,5.51.84,2.01,0,3.64-.25,4.88-.76,1.24-.51,2.23-1.2,2.98-2.07.75-.87,1.26-1.93,1.53-3.19.28-1.26.42-3.41.42-6.46v-13.33h-5.12Z"/>
        <path class="cls-2" d="M370.34,675.14c-.82-1.09-2.02-1.86-3.56-2.31,1.09-.49,1.96-1.24,2.61-2.23.64-.99.96-2.08.96-3.27,0-1.11-.25-2.1-.78-2.98-.52-.88-1.17-1.59-1.95-2.11-.78-.54-1.66-.88-2.65-1.05-.99-.16-2.49-.25-4.49-.25h-10.14v25.39h8.64c3.27-.03,5.32-.09,6.17-.18,1.36-.15,2.52-.55,3.45-1.2.93-.66,1.66-1.53,2.2-2.62.52-1.09.79-2.22.79-3.37,0-1.47-.4-2.74-1.24-3.82ZM355.45,665.16h2.95c2.41,0,3.86.03,4.37.09.85.1,1.5.4,1.93.88.43.49.64,1.14.64,1.92,0,.82-.24,1.48-.75,1.98-.49.51-1.2.81-2.07.91-.48.06-1.72.09-3.73.09h-3.36v-5.87ZM365.58,680.88c-.48.54-1.11.87-1.87,1.02-.49.1-1.66.15-3.5.15h-4.75v-6.79h4.13c2.34,0,3.85.12,4.55.36.69.24,1.23.63,1.6,1.17.36.52.55,1.17.55,1.93,0,.9-.24,1.62-.72,2.16Z"/>
      </g>
      <g>
        <rect class="cls-4" x="471.6" y="23.4" width="72" height="41.17"/>
        <rect class="cls-4" x="471.6" y="107.71" width="72" height="41.17"/>
        <rect class="cls-4" x="471.6" y="189.95" width="72" height="41.17"/>
        <rect class="cls-4" x="471.6" y="276.18" width="72" height="41.17"/>
        <rect class="cls-4" x="471.6" y="365.14" width="72" height="41.17"/>
        <rect class="cls-4" x="471.6" y="451.19" width="72" height="41.18"/>
        <rect class="cls-4" x="471.6" y="539.77" width="72" height="41.17"/>
      </g>
      <g>
        <rect class="cls-4" x="30.81" y="23.4" width="75.19" height="41.17"/>
        <rect class="cls-4" x="30.81" y="104.15" width="75.19" height="41.17"/>
        <rect class="cls-4" x="30.81" y="189.95" width="75.19" height="41.17"/>
        <rect class="cls-4" x="30.81" y="276.18" width="75.19" height="41.17"/>
        <rect class="cls-4" x="30.81" y="365.14" width="75.19" height="41.17"/>
        <rect class="cls-4" x="30.81" y="451.19" width="75.19" height="41.18"/>
        <rect class="cls-4" x="30.81" y="539.77" width="75.19" height="41.17"/>
      </g>
      <rect class="cls-2" x="136.8" y="42.97" width="302.4" height="518.4"/>
    </g>
  </g>
</svg>